<svg version="1.1" id="Layer_1" xmlns="http://www.w3.org/2000/svg" xmlns:xlink="http://www.w3.org/1999/xlink" x="0px" y="0px"
	 width="100%" viewBox="0 0 512 512" enable-background="new 0 0 512 512" xml:space="preserve">
<path fill="#F0E3E7" opacity="1.000000" stroke="none" 
	d="
M279.000000,1.000002 
	C299.354218,1.000000 319.708466,1.000000 340.213074,1.352805 
	C344.765198,2.536262 349.263885,3.029431 353.550598,4.260566 
	C366.642761,8.020609 379.856384,11.504937 392.643097,16.143141 
	C407.836578,21.654373 421.590973,29.642799 431.612762,43.022095 
	C439.476013,53.519695 445.258759,64.801834 446.744995,77.790024 
	C431.114868,67.097794 414.722992,58.469486 396.512756,54.566853 
	C382.900604,51.649628 368.861847,50.723122 354.543152,48.912125 
	C347.284882,49.262882 340.445618,49.199543 333.716583,50.029800 
	C299.277313,54.279057 269.608154,68.979462 244.279785,92.347420 
	C218.334686,116.284378 200.942917,145.433289 192.673264,179.835754 
	C190.605850,178.460587 188.881332,177.169617 187.057526,176.038803 
	C178.685623,170.847977 169.514206,169.385406 159.801239,169.937500 
	C154.117996,170.260544 148.401398,169.996384 142.699799,169.996384 
	C142.546585,170.429489 142.393372,170.862610 142.240158,171.295715 
	C167.634872,178.701736 181.573364,195.654312 184.049408,221.552383 
	C186.533829,247.538116 175.227448,266.508118 153.139450,279.775177 
	C166.826035,277.643188 180.420898,275.366028 191.901855,266.635101 
	C193.717743,265.254181 195.800949,264.224792 197.871109,263.394226 
	C206.146362,286.995514 219.280502,306.804108 238.705734,322.157349 
	C261.941223,340.522095 288.638550,349.826416 318.436523,352.004761 
	C322.504425,352.342377 326.129761,352.877197 329.763245,352.939514 
	C349.085632,353.271027 368.186615,351.204834 387.013367,346.923798 
	C412.082825,341.223267 435.381866,331.437012 456.232056,316.175476 
	C459.128448,314.055450 462.139832,312.092590 465.050049,310.427246 
	C463.170258,314.531128 461.425476,318.310577 459.491119,321.990387 
	C451.443207,337.300568 439.948334,349.746796 426.606934,360.977478 
	C422.415405,363.620544 418.435059,366.048096 414.820862,368.934143 
	C413.835480,369.720947 413.271912,372.091339 413.662292,373.390045 
	C421.595459,399.781799 421.954987,426.857056 420.414032,453.960968 
	C419.292938,473.679504 416.852325,493.323029 415.000000,513.000000 
	C357.312439,513.000000 299.624878,513.000000 241.603790,512.605713 
	C243.074539,477.379608 240.353943,443.374512 223.160080,411.724579 
	C231.017624,409.600464 238.597427,407.104797 246.366608,406.149872 
	C261.464081,404.294250 276.675934,403.385803 291.822479,401.901825 
	C296.088806,401.483795 300.405731,400.792389 304.481445,399.525146 
	C306.800201,398.804199 309.969818,396.953674 310.388519,395.082062 
	C310.802216,393.232880 308.757019,389.998993 306.875488,388.630768 
	C301.660889,384.838562 296.195312,381.247070 290.427948,378.384064 
	C264.255920,365.392212 237.614777,353.306580 211.778702,339.687805 
	C186.191406,326.200134 163.387024,308.928314 146.827057,284.507568 
	C145.927536,283.181091 143.341858,282.518951 141.490036,282.409210 
	C136.410553,282.108337 131.190750,282.926392 126.236671,282.076385 
	C120.107574,281.024841 114.190094,278.739868 108.030289,276.665344 
	C102.812103,271.621368 96.963303,267.494629 92.828964,262.062927 
	C81.886650,247.686966 79.711983,231.007568 83.180618,213.714783 
	C84.472809,207.272614 87.790092,201.236649 90.506195,194.940384 
	C96.679443,187.096039 103.528442,180.483124 112.136177,175.733246 
	C113.205719,175.143066 113.640717,173.016678 113.959297,171.515030 
	C115.915428,162.294739 116.746330,152.699127 119.814690,143.876312 
	C130.092758,114.322639 148.781250,89.892227 168.998001,66.568352 
	C178.130539,56.032215 187.709717,45.884335 196.941803,35.432724 
	C199.855179,32.134514 202.299698,28.422144 205.114838,24.575041 
	C228.265167,13.381745 252.188919,5.679780 277.579926,2.904896 
	C278.116272,2.846280 278.529388,1.660145 279.000000,1.000002 
M149.514557,280.438171 
	C149.514557,280.438171 149.558975,280.520203 149.514557,280.438171 
z"/>
<path fill="#000000" opacity="1.000000" stroke="none" 
	d="
M90.183945,195.015457 
	C87.790092,201.236649 84.472809,207.272614 83.180618,213.714783 
	C79.711983,231.007568 81.886650,247.686966 92.828964,262.062927 
	C96.963303,267.494629 102.812103,271.621368 108.047714,277.022583 
	C116.596458,293.194885 126.252556,307.808044 137.565765,320.969666 
	C123.817375,321.325104 110.415627,320.672180 97.300247,322.311005 
	C86.303261,323.685150 75.271683,326.785339 64.913658,330.813751 
	C48.221600,337.305573 34.813286,348.656464 23.708487,362.741516 
	C10.823078,379.084961 2.949330,397.331909 3.104496,418.361389 
	C3.189885,429.933899 3.964306,441.534515 5.096693,453.056793 
	C6.240125,464.691437 8.003876,476.278442 9.886292,487.822693 
	C11.263481,496.268494 13.272568,504.611298 14.999998,513.000000 
	C10.335873,513.000000 5.671746,513.000000 1.005714,513.000000 
	C1.003809,342.428741 1.003809,171.857498 1.003809,1.000000 
	C93.354027,1.000000 185.708359,1.000000 278.531342,1.000002 
	C278.529388,1.660145 278.116272,2.846280 277.579926,2.904896 
	C252.188919,5.679780 228.265167,13.381745 204.743652,24.620396 
	C190.170898,31.575855 176.698059,39.158554 165.073608,49.518356 
	C154.342850,59.081707 143.079956,68.292313 133.742950,79.117271 
	C120.144119,94.883186 109.193497,112.584770 101.898407,132.362000 
	C94.427750,152.615204 89.109810,173.198792 90.183945,195.015457 
z"/>
<path fill="#000000" opacity="1.000000" stroke="none" 
	d="
M447.055939,77.917938 
	C445.258759,64.801834 439.476013,53.519695 431.612762,43.022095 
	C421.590973,29.642799 407.836578,21.654373 392.643097,16.143141 
	C379.856384,11.504937 366.642761,8.020609 353.550598,4.260566 
	C349.263885,3.029431 344.765198,2.536262 340.681732,1.352805 
	C398.298553,1.000000 455.597076,1.000000 512.947815,1.000000 
	C512.947815,171.666656 512.947815,342.333344 512.947815,513.000000 
	C500.922638,513.000000 488.929962,513.000000 476.470062,512.532593 
	C474.668610,497.296021 474.179932,482.385315 471.738831,467.801422 
	C469.699951,455.620361 465.375031,443.821991 462.033020,431.445618 
	C460.665131,423.962555 459.760895,416.771881 457.905426,409.835632 
	C452.697937,390.368774 444.586456,372.601532 426.955902,360.934601 
	C439.948334,349.746796 451.443207,337.300568 459.491119,321.990387 
	C461.425476,318.310577 463.170258,314.531128 465.018555,310.416748 
	C465.034912,310.036011 465.019562,310.100464 465.287903,310.013397 
	C465.647736,309.600739 465.739227,309.275146 465.990845,308.636902 
	C467.794159,307.020874 469.616577,305.888824 471.052368,304.387115 
	C482.535553,292.376434 492.839081,279.446411 498.914368,263.815521 
	C502.800385,253.817383 506.990326,243.636139 508.665833,233.156738 
	C510.733948,220.221832 511.140076,206.867630 510.739288,193.741180 
	C510.430603,183.632095 508.116302,173.523087 506.064880,163.543320 
	C503.295532,150.070709 497.709076,137.586563 490.924438,125.687523 
	C482.505737,110.922684 471.691772,98.020828 459.070038,86.688942 
	C455.399292,83.393311 451.078644,80.821533 447.055939,77.917938 
z"/>
<path fill="#2C2C61" opacity="1.000000" stroke="none" 
	d="
M15.468655,513.000000 
	C13.272568,504.611298 11.263481,496.268494 9.886292,487.822693 
	C8.003876,476.278442 6.240125,464.691437 5.096693,453.056793 
	C3.964306,441.534515 3.189885,429.933899 3.104496,418.361389 
	C2.949330,397.331909 10.823078,379.084961 23.708487,362.741516 
	C34.813286,348.656464 48.221600,337.305573 64.913658,330.813751 
	C75.271683,326.785339 86.303261,323.685150 97.300247,322.311005 
	C110.415627,320.672180 123.817375,321.325104 137.886627,321.075928 
	C153.698273,336.792572 170.216217,350.580566 189.439713,361.785919 
	C180.480972,366.419250 172.157501,370.724030 163.415222,374.997223 
	C160.873383,375.299042 158.757996,375.855682 156.626007,375.928986 
	C144.354950,376.350891 133.721436,381.129395 124.293930,388.549316 
	C119.122841,392.619263 114.009483,397.235291 115.899017,405.419525 
	C80.323334,433.783447 54.910126,468.543274 44.000000,513.000000 
	C34.645771,513.000000 25.291542,513.000000 15.468655,513.000000 
z"/>
<path fill="#E4D1D7" opacity="1.000000" stroke="none" 
	d="
M44.468658,513.000000 
	C54.910126,468.543274 80.323334,433.783447 116.308365,405.454346 
	C120.509346,405.341034 124.137711,405.605103 127.765869,405.602112 
	C141.386261,405.590942 153.791977,409.166504 163.509445,419.034607 
	C168.216644,423.814819 171.848389,429.654022 175.969879,435.264221 
	C175.970154,435.681671 175.967590,435.848663 175.672272,436.169678 
	C173.486328,438.189636 171.458755,439.938812 169.720749,441.939484 
	C152.019257,462.315948 144.817551,486.806854 142.000000,513.000000 
	C109.645775,513.000000 77.291542,513.000000 44.468658,513.000000 
z"/>
<path fill="#52528E" opacity="1.000000" stroke="none" 
	d="
M426.606934,360.977478 
	C444.586456,372.601532 452.697937,390.368774 457.905426,409.835632 
	C459.760895,416.771881 460.665131,423.962555 461.676636,431.658813 
	C461.234192,433.095398 461.031006,433.908661 461.016235,434.725372 
	C460.738220,450.111816 460.934753,465.524261 460.067719,480.876770 
	C459.460571,491.626801 457.407349,502.295166 456.000000,513.000000 
	C442.645782,513.000000 429.291534,513.000000 415.468658,513.000000 
	C416.852325,493.323029 419.292938,473.679504 420.414032,453.960968 
	C421.954987,426.857056 421.595459,399.781799 413.662292,373.390045 
	C413.271912,372.091339 413.835480,369.720947 414.820862,368.934143 
	C418.435059,366.048096 422.415405,363.620544 426.606934,360.977478 
z"/>
<path fill="#52528E" opacity="1.000000" stroke="none" 
	d="
M175.965027,436.015625 
	C175.967590,435.848663 175.970154,435.681671 176.316635,435.219940 
	C181.339432,431.565765 185.880676,427.991150 190.726257,424.892426 
	C200.407684,418.701263 210.643829,413.717529 222.373734,411.956879 
	C222.574692,411.964630 222.967911,412.049225 222.967911,412.049225 
	C240.353943,443.374512 243.074539,477.379608 241.135132,512.605713 
	C224.312439,513.000000 207.624878,513.000000 190.468689,512.531616 
	C188.984665,498.168762 188.500916,484.208435 186.793030,470.399567 
	C185.308884,458.399658 182.204926,446.646240 175.965027,436.015625 
z"/>
<path fill="#EFE2E7" opacity="1.000000" stroke="none" 
	d="
M175.672272,436.169678 
	C182.204926,446.646240 185.308884,458.399658 186.793030,470.399567 
	C188.500916,484.208435 188.984665,498.168762 190.000031,512.531616 
	C174.312439,513.000000 158.624878,513.000000 142.468658,513.000000 
	C144.817551,486.806854 152.019257,462.315948 169.720749,441.939484 
	C171.458755,439.938812 173.486328,438.189636 175.672272,436.169678 
z"/>
<path fill="#EEE1E6" opacity="1.000000" stroke="none" 
	d="
M456.468384,513.000000 
	C457.407349,502.295166 459.460571,491.626801 460.067719,480.876770 
	C460.934753,465.524261 460.738220,450.111816 461.016235,434.725372 
	C461.031006,433.908661 461.234192,433.095398 461.706085,432.067322 
	C465.375031,443.821991 469.699951,455.620361 471.738831,467.801422 
	C474.179932,482.385315 474.668610,497.296021 476.001404,512.532593 
	C469.645599,513.000000 463.291199,513.000000 456.468384,513.000000 
z"/>
<path fill="#C5C5FF" opacity="1.000000" stroke="none" 
	d="
M446.744995,77.790024 
	C451.078644,80.821533 455.399292,83.393311 459.070038,86.688942 
	C471.691772,98.020828 482.505737,110.922684 490.924438,125.687523 
	C497.709076,137.586563 503.295532,150.070709 506.064880,163.543320 
	C508.116302,173.523087 510.430603,183.632095 510.739288,193.741180 
	C511.140076,206.867630 510.733948,220.221832 508.665833,233.156738 
	C506.990326,243.636139 502.800385,253.817383 498.914368,263.815521 
	C492.839081,279.446411 482.535553,292.376434 471.052368,304.387115 
	C469.616577,305.888824 467.794159,307.020874 465.794434,308.780640 
	C465.210968,309.482452 465.071503,309.770264 465.019562,310.100464 
	C465.019562,310.100464 465.034912,310.036011 465.066437,310.046509 
	C462.139832,312.092590 459.128448,314.055450 456.232056,316.175476 
	C435.381866,331.437012 412.082825,341.223267 387.013367,346.923798 
	C368.186615,351.204834 349.085632,353.271027 329.763245,352.939514 
	C326.129761,352.877197 322.504425,352.342377 318.402100,351.656830 
	C317.176117,350.005249 316.475128,348.688568 315.662659,347.444702 
	C304.314789,330.071686 292.193268,313.150360 281.762787,295.243805 
	C264.338348,265.330383 251.353592,233.665604 247.815292,198.695679 
	C246.330444,184.020416 246.404373,169.452652 249.567474,155.126709 
	C259.622681,109.586044 288.640564,79.644424 329.425354,59.785633 
	C337.746796,55.733780 346.473267,52.513691 355.013031,48.910183 
	C368.861847,50.723122 382.900604,51.649628 396.512756,54.566853 
	C414.722992,58.469486 431.114868,67.097794 446.744995,77.790024 
z"/>
<path fill="#A4A4F7" opacity="1.000000" stroke="none" 
	d="
M354.543152,48.912125 
	C346.473267,52.513691 337.746796,55.733780 329.425354,59.785633 
	C288.640564,79.644424 259.622681,109.586044 249.567474,155.126709 
	C246.404373,169.452652 246.330444,184.020416 247.815292,198.695679 
	C251.353592,233.665604 264.338348,265.330383 281.762787,295.243805 
	C292.193268,313.150360 304.314789,330.071686 315.662659,347.444702 
	C316.475128,348.688568 317.176117,350.005249 317.963318,351.636017 
	C288.638550,349.826416 261.941223,340.522095 238.705734,322.157349 
	C219.280502,306.804108 206.146362,286.995514 197.962524,263.044373 
	C208.215637,249.961639 213.683655,235.997406 212.005554,219.693405 
	C210.409912,204.190720 205.200821,190.404907 192.970444,179.993729 
	C200.942917,145.433289 218.334686,116.284378 244.279785,92.347420 
	C269.608154,68.979462 299.277313,54.279057 333.716583,50.029800 
	C340.445618,49.199543 347.284882,49.262882 354.543152,48.912125 
z"/>
<path fill="#E4D1D7" opacity="1.000000" stroke="none" 
	d="
M223.160080,411.724579 
	C222.967911,412.049225 222.574692,411.964630 222.311798,411.605103 
	C216.957901,401.905334 209.768478,394.450165 201.265076,388.193268 
	C190.131882,380.001312 177.410217,376.291901 163.834015,375.028809 
	C172.157501,370.724030 180.480972,366.419250 189.439713,361.785919 
	C170.216217,350.580566 153.698273,336.792572 138.357330,321.060364 
	C126.252556,307.808044 116.596458,293.194885 108.198624,277.344971 
	C114.190094,278.739868 120.107574,281.024841 126.236671,282.076385 
	C131.190750,282.926392 136.410553,282.108337 141.490036,282.409210 
	C143.341858,282.518951 145.927536,283.181091 146.827057,284.507568 
	C163.387024,308.928314 186.191406,326.200134 211.778702,339.687805 
	C237.614777,353.306580 264.255920,365.392212 290.427948,378.384064 
	C296.195312,381.247070 301.660889,384.838562 306.875488,388.630768 
	C308.757019,389.998993 310.802216,393.232880 310.388519,395.082062 
	C309.969818,396.953674 306.800201,398.804199 304.481445,399.525146 
	C300.405731,400.792389 296.088806,401.483795 291.822479,401.901825 
	C276.675934,403.385803 261.464081,404.294250 246.366608,406.149872 
	C238.597427,407.104797 231.017624,409.600464 223.160080,411.724579 
z"/>
<path fill="#E4D1D7" opacity="1.000000" stroke="none" 
	d="
M90.506195,194.940384 
	C89.109810,173.198792 94.427750,152.615204 101.898407,132.362000 
	C109.193497,112.584770 120.144119,94.883186 133.742950,79.117271 
	C143.079956,68.292313 154.342850,59.081707 165.073608,49.518356 
	C176.698059,39.158554 190.170898,31.575855 204.587616,24.944683 
	C202.299698,28.422144 199.855179,32.134514 196.941803,35.432724 
	C187.709717,45.884335 178.130539,56.032215 168.998001,66.568352 
	C148.781250,89.892227 130.092758,114.322639 119.814690,143.876312 
	C116.746330,152.699127 115.915428,162.294739 113.959297,171.515030 
	C113.640717,173.016678 113.205719,175.143066 112.136177,175.733246 
	C103.528442,180.483124 96.679443,187.096039 90.506195,194.940384 
z"/>
<path fill="#E4D1D7" opacity="1.000000" stroke="none" 
	d="
M192.673264,179.835754 
	C205.200821,190.404907 210.409912,204.190720 212.005554,219.693405 
	C213.683655,235.997406 208.215637,249.961639 197.851959,262.683014 
	C195.800949,264.224792 193.717743,265.254181 191.901855,266.635101 
	C180.420898,275.366028 166.826035,277.643188 153.139450,279.775177 
	C175.227448,266.508118 186.533829,247.538116 184.049408,221.552383 
	C181.573364,195.654312 167.634872,178.701736 142.240158,171.295715 
	C142.393372,170.862610 142.546585,170.429489 142.699799,169.996384 
	C148.401398,169.996384 154.117996,170.260544 159.801239,169.937500 
	C169.514206,169.385406 178.685623,170.847977 187.057526,176.038803 
	C188.881332,177.169617 190.605850,178.460587 192.673264,179.835754 
z"/>
<path fill="#E4D1D7" opacity="1.000000" stroke="none" 
	d="
M149.536774,280.479187 
	C149.558975,280.520203 149.514557,280.438171 149.536774,280.479187 
z"/>
<path fill="#F0E3E7" opacity="1.000000" stroke="none" 
	d="
M465.287903,310.013397 
	C465.071503,309.770264 465.210968,309.482452 465.634338,309.093323 
	C465.739227,309.275146 465.647736,309.600739 465.287903,310.013397 
z"/>
<path fill="#3F3F7B" opacity="1.000000" stroke="none" 
	d="
M163.415222,374.997223 
	C177.410217,376.291901 190.131882,380.001312 201.265076,388.193268 
	C209.768478,394.450165 216.957901,401.905334 222.110840,411.597351 
	C210.643829,413.717529 200.407684,418.701263 190.726257,424.892426 
	C185.880676,427.991150 181.339432,431.565765 176.313797,434.969482 
	C171.848389,429.654022 168.216644,423.814819 163.509445,419.034607 
	C153.791977,409.166504 141.386261,405.590942 127.765869,405.602112 
	C124.137711,405.605103 120.509346,405.341034 116.471725,405.164734 
	C114.009483,397.235291 119.122841,392.619263 124.293930,388.549316 
	C133.721436,381.129395 144.354950,376.350891 156.626007,375.928986 
	C158.757996,375.855682 160.873383,375.299042 163.415222,374.997223 
z"/>
</svg>